<svg xmlns="http://www.w3.org/2000/svg" width="640" height="640">
<path style="fill:#030221; stroke:none;" d="M0 0L0 640L200 640L200 520L220 520L220 500L240 500L240 440L260 440L260 420L240 420L240 400L220 400L220 220L240 220L240 200L260 200L260 180L280 180L280 160L300 160L300 140L420 140L420 160L440 160L440 200L460 200L460 380L440 380L440 420L420 420L420 440L400 440L400 460L380 460L380 540L400 540L400 560L420 560L420 580L440 580L440 620L460 620L460 640L640 640L640 0L0 0z"/>
<path style="fill:#f9c793; stroke:none;" d="M300 140L300 160L280 160L280 180L260 180L260 200L240 200L240 220L220 220L220 400L240 400L240 420L260 420L260 440L280 440L280 460L320 460L320 480L380 480L380 460L400 460L400 440L420 440L420 420L440 420L440 380L460 380L460 200L440 200L440 160L420 160L420 140L300 140z"/>
<path style="fill:#030221; stroke:none;" d="M260 240L260 260L340 260L340 240L260 240M380 240L380 260L440 260L440 240L380 240z"/>
<path style="fill:#cd9933; stroke:none;" d="M360 260L360 360L340 360L340 380L380 380L380 260L360 260z"/>
<path style="fill:#030221; stroke:none;" d="M260 280L260 300L300 300L300 280L260 280z"/>
<path style="fill:#ffffff; stroke:none;" d="M300 280L300 300L320 300L320 280L300 280z"/>
<path style="fill:#030221; stroke:none;" d="M380 280L380 300L420 300L420 280L380 280z"/>
<path style="fill:#ffffff; stroke:none;" d="M420 280L420 300L440 300L440 280L420 280z"/>
<path style="fill:#ff3333; stroke:none;" d="M300 380L300 400L320 400L320 420L380 420L380 400L320 400L320 380L300 380z"/>
<path style="fill:#cd9933; stroke:none;" d="M240 440L240 500L220 500L220 520L200 520L200 640L220 640L220 520L240 520L240 500L260 500L260 520L280 520L280 540L340 540L340 520L360 520L360 500L380 500L380 480L320 480L320 460L280 460L280 440L240 440z"/>
<path style="fill:#f9c793; stroke:none;" d="M240 500L240 520L220 520L220 640L440 640L440 620L420 620L420 580L400 580L400 560L380 560L380 500L360 500L360 520L340 520L340 540L280 540L280 520L260 520L260 500L240 500z"/>
<path style="fill:#cd9933; stroke:none;" d="M380 540L380 560L400 560L400 540L380 540M400 560L400 580L420 580L420 560L400 560M420 580L420 620L440 620L440 580L420 580M440 620L440 640L460 640L460 620L440 620z"/>
</svg>
